# xmcd CD database file
#
# Track frame offsets:
#	150
#	14170
#	30725
#
# Disc length: 673 seconds
#
# Revision: 2
# Processed by: cddbd v1.4b41PL1 Copyright (c) Steve Scherf et al.
# Submitted via: Feurio! 1.51.7ß - http://www.feurio.com
#
DISCID=20029f03
DTITLE=Silent Circle - I Need A Woman
DYEAR=1900
DGENRE=
TTITLE0=I Need A Woman (Radio Edit)
TTITLE1=I Need A Woman (Album Version)
TTITLE2=Love Can Last A Lifetime
EXTD=
EXTT0=
EXTT1=
EXTT2=
PLAYORDER=
